#!OML:ASF F:\VICON\USERDATA\INSTALL\rory3\rory3.ASF
:FULLY-SPECIFIED
:DEGREES
819
root -1.77065 29.8446 -10.6395 1.68397 -45.8523 1.22631
lowerback 8.67212 2.12782 -2.35097
upperback 1.68006 2.51822 -1.7718
thorax -3.13789 1.25267 -0.795225
lowerneck -6.82696 2.13312 -5.81998
upperneck 30.9456 2.39643 4.3687
head 10.9289 0.756378 2.84035
rclavicle 2.20651e-014 1.31198e-014
rhumerus -32.1434 7.03511 -84.0081
rradius 33.2714
rwrist 12.7484
rhand -25.7121 5.00278
rfingers 7.12502
rthumb 0.823844 -24.9754
lclavicle 2.20651e-014 1.31198e-014
lhumerus -26.7629 4.05757 79.3465
lradius 31.4155
lwrist 5.29856
lhand -25.2302 21.6082
lfingers 7.12502
lthumb 1.28922 51.5841
rfemur -13.9993 25.3921 18.6383
rtibia 29.0578
rfoot -16.6285 -4.72245
rtoes 4.63777
lfemur -17.6915 -10.5428 -18.9248
ltibia 25.861
lfoot -8.90749 -10.4012
ltoes -4.34175
820
root -1.78933 29.8439 -10.6676 1.74678 -45.0881 1.10961
lowerback 8.76783 2.09294 -2.18393
upperback 1.63686 2.48931 -1.64094
thorax -3.23442 1.23856 -0.755022
lowerneck -6.81986 2.06472 -6.13656
upperneck 31.0765 2.37401 4.32372
head 10.9774 0.704152 2.88108
rclavicle -2.49475e-014 -1.43125e-014
rhumerus -32.0262 7.04704 -83.6785
rradius 33.0022
rwrist 12.9581
rhand -25.5558 5.14202
rfingers 7.12502
rthumb 0.974767 -24.8355
lclavicle -2.49475e-014 -1.43125e-014
lhumerus -26.7392 4.30706 79.4058
lradius 31.4122
lwrist 5.34724
lhand -25.3422 21.4622
lfingers 7.12502
lthumb 1.18105 51.4387
rfemur -13.8555 24.8979 18.8579
rtibia 28.9786
rfoot -16.8796 -5.53993
rtoes 3.47403
lfemur -17.721 -10.8054 -18.7163
ltibia 25.7806
lfoot -9.23347 -10.6303
ltoes -6.78197
821
root -1.81046 29.8468 -10.6891 1.83139 -44.4452 0.987445
lowerback 8.78209 2.10594 -2.01356
upperback 1.59678 2.52607 -1.54889
thorax -3.28086 1.25652 -0.761017
lowerneck -7.06823 2.06411 -6.41159
upperneck 31.2911 2.36564 4.60502
head 11.1005 0.700845 3.04383
rclavicle -3.27995e-014 2.82274e-014
rhumerus -31.9551 7.04253 -83.4436
rradius 32.8298
rwrist 13.1379
rhand -25.5176 5.08497
rfingers 7.12502
rthumb 1.01163 -24.8924
lclavicle -3.27995e-014 2.82274e-014
lhumerus -26.812 4.66428 79.3827
lradius 31.5216
lwrist 5.35072
lhand -25.3323 21.2688
lfingers 7.12502
lthumb 1.19062 51.2452
rfemur -13.6904 24.362 19.0379
rtibia 28.803
rfoot -17.0574 -5.79339
rtoes 2.85131
lfemur -17.8 -11.0765 -18.5217
ltibia 25.8259
lfoot -9.67535 -10.6387
ltoes -8.92107
822
root -1.8291 29.8497 -10.7131 2.07112 -43.861 0.682648
lowerback 8.69734 2.16161 -1.60781
upperback 1.62268 2.64307 -1.51634
thorax -3.19048 1.31116 -0.963441
lowerneck -6.92825 2.41151 -5.81458
upperneck 31.4223 2.94819 3.9321
head 11.1134 0.954929 2.75512
rclavicle -3.88624e-014 -9.14409e-015
rhumerus -31.7875 6.95649 -83.2701
rradius 32.6559
rwrist 13.1961
rhand -25.4889 5.00022
rfingers 7.12502
rthumb 1.03941 -24.977
lclavicle -3.88624e-014 -9.14409e-015
lhumerus -26.8006 4.91598 79.3207
lradius 31.6974
lwrist 5.17151
lhand -25.2235 21.447
lfingers 7.12502
lthumb 1.29568 51.4228
rfemur -13.5256 23.7997 19.364
rtibia 28.5547
rfoot -17.091 -5.50144
rtoes 2.9354
lfemur -17.9826 -11.1702 -18.1741
ltibia 25.958
lfoot -10.1007 -10.7241
ltoes -10.5418
823
root -1.8481 29.8499 -10.7354 2.53152 -43.3115 0.170706
lowerback 8.39282 2.23904 -0.946011
upperback 1.70699 2.81678 -1.48975
thorax -2.90291 1.39292 -1.30949
lowerneck -7.19861 2.33401 -6.97004
upperneck 31.2385 2.60927 5.58021
head 11.0531 0.873192 3.52862
rclavicle -3.13086e-014 -1.43125e-014
rhumerus -31.4482 6.75219 -83.0427
rradius 32.3682
rwrist 13.4284
rhand -25.6191 4.78049
rfingers 7.12502
rthumb 0.913622 -25.1973
lclavicle -3.13086e-014 -1.43125e-014
lhumerus -26.6376 5.00324 79.3016
lradius 31.7384
lwrist 4.95134
lhand -25.2119 21.5692
lfingers 7.12502
lthumb 1.30695 51.545
rfemur -13.4519 23.2863 19.8482
rtibia 28.2751
rfoot -16.9279 -5.3328
rtoes 2.8198
lfemur -18.2849 -11.1152 -17.6406
ltibia 26.1343
lfoot -10.4214 -10.977
ltoes -11.21
824
root -1.86742 29.8492 -10.7518 2.83381 -42.9237 -0.184657
lowerback 8.13687 2.38155 -0.404043
upperback 1.74812 3.05974 -1.47679
thorax -2.68708 1.5116 -1.61122
lowerneck -7.39148 2.2926 -7.43531
upperneck 31.2925 2.48615 6.19107
head 11.0985 0.839769 3.83088
rclavicle 2.83765e-014 -2.42517e-014
rhumerus -31.1907 6.36118 -82.7343
rradius 32.0292
rwrist 14.1569
rhand -25.7604 4.33449
rfingers 7.12502
rthumb 0.777153 -25.6438
lclavicle 2.83765e-014 -2.42517e-014
lhumerus -26.6102 5.12433 79.3198
lradius 31.7616
lwrist 5.05922
lhand -24.6932 22.2491
lfingers 7.12502
lthumb 1.80788 52.2212
rfemur -13.3611 22.7886 20.2199
rtibia 28.0134
rfoot -16.622 -5.35387
rtoes 2.30614
lfemur -18.4894 -11.0507 -17.2726
ltibia 26.3783
lfoot -10.8133 -10.919
ltoes -11.1367
